<svg width="640" height="424" viewBox="0 0 640 424" fill="none" xmlns="http://www.w3.org/2000/svg">
<rect width="640" height="423" fill="black"/>
<path d="M491.629 94.224L486.512 94.2012L486.35 124.12L491.467 124.143L491.629 94.224Z" fill="#FFE477" fill-opacity="0.22"/>
<path d="M502.726 124.193L497.609 124.17L497.771 94.2515L502.889 94.2743L502.726 124.193Z" fill="#FFE477" fill-opacity="0.22"/>
<path d="M514.148 94.3247L508.006 94.2972L507.844 124.216L513.985 124.243L514.148 94.3247Z" fill="#FFE477" fill-opacity="0.22"/>
<path d="M581.885 372.355L582.141 325.195L629.992 372.57L581.885 372.355Z" fill="#47BDFF" fill-opacity="0.22"/>
<path d="M101.388 318.41L21.0391 318.051L100.956 398.024L101.388 318.41Z" fill="#FF8A00" fill-opacity="0.28"/>
<ellipse cx="2.5589" cy="2.53551" rx="2.5589" ry="2.53551" transform="matrix(0.99999 0.0044682 -0.00541614 0.999985 16.8594 334.768)" fill="#FF8A00" fill-opacity="0.28"/>
<ellipse cx="2.5589" cy="2.53551" rx="2.5589" ry="2.53551" transform="matrix(0.99999 0.0044682 -0.00541614 0.999985 16.7656 350.994)" fill="#FF8A00" fill-opacity="0.28"/>
<ellipse cx="2.5589" cy="2.53551" rx="2.5589" ry="2.53551" transform="matrix(0.99999 0.0044682 -0.00541614 0.999985 16.6953 364.178)" fill="#FF8A00" fill-opacity="0.28"/>
<ellipse cx="2.5589" cy="2.53551" rx="2.5589" ry="2.53551" transform="matrix(0.99999 0.0044682 -0.00541614 0.999985 16.6133 380.404)" fill="#FF8A00" fill-opacity="0.28"/>
<ellipse cx="2.5589" cy="2.53551" rx="2.5589" ry="2.53551" transform="matrix(0.99999 0.0044682 -0.00541614 0.999985 16.5156 396.633)" fill="#FF8A00" fill-opacity="0.28"/>
<ellipse cx="2.5589" cy="2.53551" rx="2.5589" ry="2.53551" transform="matrix(0.99999 0.0044682 -0.00541614 0.999985 16.4492 409.816)" fill="#FF8A00" fill-opacity="0.28"/>
<ellipse cx="2.5589" cy="2.53551" rx="2.5589" ry="2.53551" transform="matrix(0.99999 0.0044682 -0.00541614 0.999985 24.8398 372.328)" fill="#FF8A00" fill-opacity="0.28"/>
<ellipse cx="2.5589" cy="2.53551" rx="2.5589" ry="2.53551" transform="matrix(0.99999 0.0044682 -0.00541614 0.999985 24.7539 388.553)" fill="#FF8A00" fill-opacity="0.28"/>
<ellipse cx="2.5589" cy="2.53551" rx="2.5589" ry="2.53551" transform="matrix(0.99999 0.0044682 -0.00541614 0.999985 24.6797 401.74)" fill="#FF8A00" fill-opacity="0.28"/>
<ellipse cx="2.5589" cy="2.53551" rx="2.5589" ry="2.53551" transform="matrix(0.99999 0.0044682 -0.00541614 0.999985 31.9609 379.459)" fill="#FF8A00" fill-opacity="0.28"/>
<ellipse cx="2.5589" cy="2.53551" rx="2.5589" ry="2.53551" transform="matrix(0.99999 0.0044682 -0.00541614 0.999985 31.8789 395.686)" fill="#FF8A00" fill-opacity="0.28"/>
<ellipse cx="2.5589" cy="2.53551" rx="2.5589" ry="2.53551" transform="matrix(0.99999 0.0044682 -0.00541614 0.999985 31.8047 408.871)" fill="#FF8A00" fill-opacity="0.28"/>
<ellipse cx="2.5589" cy="2.53551" rx="2.5589" ry="2.53551" transform="matrix(0.99999 0.0044682 -0.00541614 0.999985 39.0938 386.592)" fill="#FF8A00" fill-opacity="0.28"/>
<ellipse cx="2.5589" cy="2.53551" rx="2.5589" ry="2.53551" transform="matrix(0.99999 0.0044682 -0.00541614 0.999985 39 402.816)" fill="#FF8A00" fill-opacity="0.28"/>
<ellipse cx="2.5589" cy="2.53551" rx="2.5589" ry="2.53551" transform="matrix(0.99999 0.0044682 -0.00541614 0.999985 38.9297 416)" fill="#FF8A00" fill-opacity="0.28"/>
<ellipse cx="2.5589" cy="2.53551" rx="2.5589" ry="2.53551" transform="matrix(0.99999 0.0044682 -0.00541614 0.999985 23.5664 417.961)" fill="#FF8A00" fill-opacity="0.28"/>
<ellipse cx="2.5589" cy="2.53551" rx="2.5589" ry="2.53551" transform="matrix(0.99999 0.0044682 -0.00541614 0.999985 83.957 418.232)" fill="#FF8A00" fill-opacity="0.28"/>
<ellipse cx="2.5589" cy="2.53551" rx="2.5589" ry="2.53551" transform="matrix(0.99999 0.0044682 -0.00541614 0.999985 27.9688 361.186)" fill="#FF8A00" fill-opacity="0.28"/>
<ellipse cx="2.5589" cy="2.53551" rx="2.5589" ry="2.53551" transform="matrix(0.99999 0.0044682 -0.00541614 0.999985 47.3164 379.529)" fill="#FF8A00" fill-opacity="0.28"/>
<ellipse cx="2.5589" cy="2.53551" rx="2.5589" ry="2.53551" transform="matrix(0.99999 0.0044682 -0.00541614 0.999985 47.2344 395.756)" fill="#FF8A00" fill-opacity="0.28"/>
<ellipse cx="2.5589" cy="2.53551" rx="2.5589" ry="2.53551" transform="matrix(0.99999 0.0044682 -0.00541614 0.999985 47.1602 408.939)" fill="#FF8A00" fill-opacity="0.28"/>
<ellipse cx="2.5589" cy="2.53551" rx="2.5589" ry="2.53551" transform="matrix(0.99999 0.0044682 -0.00541614 0.999985 53.4141 387.67)" fill="#FF8A00" fill-opacity="0.28"/>
<ellipse cx="2.5589" cy="2.53551" rx="2.5589" ry="2.53551" transform="matrix(0.99999 0.0044682 -0.00541614 0.999985 53.3242 403.895)" fill="#FF8A00" fill-opacity="0.28"/>
<ellipse cx="2.5589" cy="2.53551" rx="2.5589" ry="2.53551" transform="matrix(0.99999 0.0044682 -0.00541614 0.999985 53.2578 417.078)" fill="#FF8A00" fill-opacity="0.28"/>
<ellipse cx="2.5589" cy="2.53551" rx="2.5589" ry="2.53551" transform="matrix(0.99999 0.0044682 -0.00541614 0.999985 61.6484 379.594)" fill="#FF8A00" fill-opacity="0.28"/>
<ellipse cx="2.5589" cy="2.53551" rx="2.5589" ry="2.53551" transform="matrix(0.99999 0.0044682 -0.00541614 0.999985 61.5586 395.818)" fill="#FF8A00" fill-opacity="0.28"/>
<ellipse cx="2.5589" cy="2.53551" rx="2.5589" ry="2.53551" transform="matrix(0.99999 0.0044682 -0.00541614 0.999985 61.4883 409.002)" fill="#FF8A00" fill-opacity="0.28"/>
<ellipse cx="2.5589" cy="2.53551" rx="2.5589" ry="2.53551" transform="matrix(0.99999 0.0044682 -0.00541614 0.999985 69.793 387.74)" fill="#FF8A00" fill-opacity="0.28"/>
<ellipse cx="2.5589" cy="2.53551" rx="2.5589" ry="2.53551" transform="matrix(0.99999 0.0044682 -0.00541614 0.999985 69.7031 403.969)" fill="#FF8A00" fill-opacity="0.28"/>
<ellipse cx="2.5589" cy="2.53551" rx="2.5589" ry="2.53551" transform="matrix(0.99999 0.0044682 -0.00541614 0.999985 69.6367 417.152)" fill="#FF8A00" fill-opacity="0.28"/>
<ellipse cx="2.54926" cy="2.5452" rx="2.54926" ry="2.5452" transform="matrix(0.73817 -0.674615 0.681298 0.732006 23.9727 344.34)" fill="#FF8A00" fill-opacity="0.28"/>
<ellipse cx="2.54926" cy="2.5452" rx="2.54926" ry="2.5452" transform="matrix(0.73817 -0.674615 0.681298 0.732006 35.0625 356.266)" fill="#FF8A00" fill-opacity="0.28"/>
<ellipse cx="2.54926" cy="2.5452" rx="2.54926" ry="2.5452" transform="matrix(0.73817 -0.674615 0.681298 0.732006 44.082 365.953)" fill="#FF8A00" fill-opacity="0.28"/>
<ellipse cx="2.54926" cy="2.5452" rx="2.54926" ry="2.5452" transform="matrix(0.73817 -0.674615 0.681298 0.732006 76.9023 398.33)" fill="#FF8A00" fill-opacity="0.28"/>
<ellipse cx="2.54926" cy="2.5452" rx="2.54926" ry="2.5452" transform="matrix(0.73817 -0.674615 0.681298 0.732006 87.9961 410.254)" fill="#FF8A00" fill-opacity="0.28"/>
<ellipse cx="2.54926" cy="2.5452" rx="2.54926" ry="2.5452" transform="matrix(0.73817 -0.674615 0.681298 0.732006 97.0156 419.941)" fill="#FF8A00" fill-opacity="0.28"/>
<ellipse cx="4.60602" cy="4.56392" rx="4.60602" ry="4.56392" transform="matrix(0.99999 0.0044682 -0.00541614 0.999985 538.062 336.66)" fill="#47BDFF" fill-opacity="0.22"/>
<ellipse cx="4.60602" cy="4.56392" rx="4.60602" ry="4.56392" transform="matrix(0.99999 0.0044682 -0.00541614 0.999985 537.203 306.23)" fill="#47BDFF" fill-opacity="0.22"/>
<ellipse cx="4.60602" cy="4.56392" rx="4.60602" ry="4.56392" transform="matrix(0.99999 0.0044682 -0.00541614 0.999985 552.551 307.312)" fill="#47BDFF" fill-opacity="0.22"/>
<ellipse cx="4.60602" cy="4.56392" rx="4.60602" ry="4.56392" transform="matrix(0.99999 0.0044682 -0.00541614 0.999985 551.375 335.705)" fill="#47BDFF" fill-opacity="0.22"/>
<ellipse cx="4.60602" cy="4.56392" rx="4.60602" ry="4.56392" transform="matrix(0.99999 0.0044682 -0.00541614 0.999985 595.535 307.504)" fill="#47BDFF" fill-opacity="0.22"/>
<ellipse cx="4.60602" cy="4.56392" rx="4.60602" ry="4.56392" transform="matrix(0.99999 0.0044682 -0.00541614 0.999985 595.703 277.078)" fill="#47BDFF" fill-opacity="0.22"/>
<ellipse cx="4.60602" cy="4.56392" rx="4.60602" ry="4.56392" transform="matrix(0.99999 0.0044682 -0.00541614 0.999985 537.117 321.441)" fill="#47BDFF" fill-opacity="0.22"/>
<ellipse cx="4.60602" cy="4.56392" rx="4.60602" ry="4.56392" transform="matrix(0.99999 0.0044682 -0.00541614 0.999985 610.891 307.574)" fill="#47BDFF" fill-opacity="0.22"/>
<ellipse cx="4.60602" cy="4.56392" rx="4.60602" ry="4.56392" transform="matrix(0.99999 0.0044682 -0.00541614 0.999985 610.031 277.143)" fill="#47BDFF" fill-opacity="0.22"/>
<ellipse cx="4.60602" cy="4.56392" rx="4.60602" ry="4.56392" transform="matrix(0.99999 0.0044682 -0.00541614 0.999985 609.953 292.357)" fill="#47BDFF" fill-opacity="0.22"/>
<ellipse cx="4.60602" cy="4.56392" rx="4.60602" ry="4.56392" transform="matrix(0.99999 0.0044682 -0.00541614 0.999985 581.207 307.439)" fill="#47BDFF" fill-opacity="0.22"/>
<ellipse cx="4.60602" cy="4.56392" rx="4.60602" ry="4.56392" transform="matrix(0.99999 0.0044682 -0.00541614 0.999985 580.348 277.01)" fill="#47BDFF" fill-opacity="0.22"/>
<ellipse cx="4.60602" cy="4.56392" rx="4.60602" ry="4.56392" transform="matrix(0.99999 0.0044682 -0.00541614 0.999985 580.27 292.223)" fill="#47BDFF" fill-opacity="0.22"/>
<ellipse cx="4.60602" cy="4.56392" rx="4.60602" ry="4.56392" transform="matrix(0.99999 0.0044682 -0.00541614 0.999985 566.723 336.787)" fill="#47BDFF" fill-opacity="0.22"/>
<ellipse cx="4.60602" cy="4.56392" rx="4.60602" ry="4.56392" transform="matrix(0.99999 0.0044682 -0.00541614 0.999985 565.863 306.357)" fill="#47BDFF" fill-opacity="0.22"/>
<ellipse cx="4.60602" cy="4.56392" rx="4.60602" ry="4.56392" transform="matrix(0.99999 0.0044682 -0.00541614 0.999985 565.777 321.57)" fill="#47BDFF" fill-opacity="0.22"/>
<ellipse cx="17.9123" cy="17.2415" rx="17.9123" ry="17.2415" transform="matrix(0.99999 0.0044682 -0.00541614 0.999985 603.797 172.309)" fill="#FFE477" fill-opacity="0.22"/>
<path d="M637.486 94.3688L576.073 94.0944L637.143 157.756L637.486 94.3688Z" fill="#FFE477" fill-opacity="0.22"/>
<path d="M574.978 107.274L575.009 101.696L630.49 157.726L624.86 157.701L574.978 107.274Z" fill="#FFE477" fill-opacity="0.22"/>
<path d="M574.907 120.459L574.943 113.866L618.719 157.673L612.578 157.646L574.907 120.459Z" fill="#FFE477" fill-opacity="0.22"/>
<path d="M574.844 132.122L574.877 126.037L605.925 157.616L599.783 157.589L574.844 132.122Z" fill="#FFE477" fill-opacity="0.22"/>
<path d="M574.775 144.799L574.808 138.714L593.642 157.561L588.524 157.538L574.775 144.799Z" fill="#FFE477" fill-opacity="0.22"/>
<path d="M574.706 157.477L574.739 151.391L581.36 157.506L574.706 157.477Z" fill="#FFE477" fill-opacity="0.22"/>
<path d="M549.381 108.681L534.46 123.321L549.214 139.614L564.138 124.467L549.381 108.681Z" fill="#FFE477" fill-opacity="0.22"/>
<path d="M480.883 93.669L476.277 93.6484L476.113 124.074L480.719 124.095L480.883 93.669Z" fill="#FFE477" fill-opacity="0.22"/>
<path d="M637.486 94.3688L576.073 94.0944L637.143 157.756L637.486 94.3688Z" fill="#FFE477" fill-opacity="0.22"/>
<path d="M574.978 107.274L575.009 101.696L630.49 157.726L624.86 157.701L574.978 107.274Z" fill="#FFE477" fill-opacity="0.22"/>
<path d="M574.907 120.459L574.943 113.866L618.719 157.673L612.578 157.646L574.907 120.459Z" fill="#FFE477" fill-opacity="0.22"/>
<path d="M574.844 132.122L574.877 126.037L605.925 157.616L599.783 157.589L574.844 132.122Z" fill="#FFE477" fill-opacity="0.22"/>
<path d="M574.775 144.799L574.808 138.714L593.642 157.561L588.524 157.538L574.775 144.799Z" fill="#FFE477" fill-opacity="0.22"/>
<path d="M574.706 157.477L574.739 151.391L581.36 157.506L574.706 157.477Z" fill="#FFE477" fill-opacity="0.22"/>
<path d="M549.381 108.681L534.46 123.321L549.214 139.614L564.138 124.467L549.381 108.681Z" fill="#FFE477" fill-opacity="0.22"/>
<path d="M480.883 93.669L476.277 93.6484L476.113 124.074L480.719 124.095L480.883 93.669Z" fill="#FFE477" fill-opacity="0.22"/>
<path d="M0.467715 146.663L26.7138 119.904L26.4199 174.163L0.467715 146.663Z" fill="#89D5F4" fill-opacity="0.22"/>
<path d="M36.3313 234.046L36.6114 182.322L62.5719 208.301L36.3313 234.046Z" fill="#89D5F4" fill-opacity="0.22"/>
<ellipse cx="5.62958" cy="5.57812" rx="5.62958" ry="5.57812" transform="matrix(0.99999 0.0044682 -0.00541614 0.999985 36.4219 121.975)" fill="#89D5F4" fill-opacity="0.22"/>
<ellipse cx="5.62958" cy="5.57812" rx="5.62958" ry="5.57812" transform="matrix(0.99999 0.0044682 -0.00541614 0.999985 35.2891 142.252)" fill="#89D5F4" fill-opacity="0.22"/>
<ellipse cx="5.62958" cy="5.57812" rx="5.62958" ry="5.57812" transform="matrix(0.99999 0.0044682 -0.00541614 0.999985 36.207 162.543)" fill="#89D5F4" fill-opacity="0.22"/>
<ellipse cx="5.62958" cy="5.57812" rx="5.62958" ry="5.57812" transform="matrix(0.99999 0.0044682 -0.00541614 0.999985 56.8945 122.068)" fill="#89D5F4" fill-opacity="0.22"/>
<ellipse cx="5.62958" cy="5.57812" rx="5.62958" ry="5.57812" transform="matrix(0.99999 0.0044682 -0.00541614 0.999985 55.7539 142.346)" fill="#89D5F4" fill-opacity="0.22"/>
<ellipse cx="5.62958" cy="5.57812" rx="5.62958" ry="5.57812" transform="matrix(0.99999 0.0044682 -0.00541614 0.999985 56.6719 162.633)" fill="#89D5F4" fill-opacity="0.22"/>
<ellipse cx="5.62958" cy="5.57812" rx="5.62958" ry="5.57812" transform="matrix(0.99999 0.0044682 -0.00541614 0.999985 56.8945 122.068)" fill="#89D5F4" fill-opacity="0.22"/>
<ellipse cx="5.62958" cy="5.57812" rx="5.62958" ry="5.57812" transform="matrix(0.99999 0.0044682 -0.00541614 0.999985 55.7539 142.346)" fill="#89D5F4" fill-opacity="0.22"/>
<ellipse cx="5.62958" cy="5.57812" rx="5.62958" ry="5.57812" transform="matrix(0.99999 0.0044682 -0.00541614 0.999985 56.6719 162.633)" fill="#89D5F4" fill-opacity="0.22"/>
<ellipse cx="5.62958" cy="5.57812" rx="5.62958" ry="5.57812" transform="matrix(0.99999 0.0044682 -0.00541614 0.999985 76.3398 122.152)" fill="#89D5F4" fill-opacity="0.22"/>
<ellipse cx="5.62958" cy="5.57812" rx="5.62958" ry="5.57812" transform="matrix(0.99999 0.0044682 -0.00541614 0.999985 33.2539 11.1523)" fill="#D9D9D9"/>
<ellipse cx="5.62958" cy="5.57812" rx="5.62958" ry="5.57812" transform="matrix(0.99999 0.0044682 -0.00541614 0.999985 75.2031 142.434)" fill="#89D5F4" fill-opacity="0.22"/>
<ellipse cx="5.62958" cy="5.57812" rx="5.62958" ry="5.57812" transform="matrix(0.99999 0.0044682 -0.00541614 0.999985 76.1211 162.721)" fill="#89D5F4" fill-opacity="0.22"/>
</svg>
