<svg width="640" height="402" viewBox="0 0 640 402" fill="none" xmlns="http://www.w3.org/2000/svg">
<path d="M491.696 28.5756L486.578 28.5527L486.416 58.4713L491.534 58.4942L491.696 28.5756Z" fill="#FFE477" fill-opacity="0.22"/>
<path d="M502.793 58.5445L497.675 58.5216L497.837 28.603L502.955 28.6259L502.793 58.5445Z" fill="#FFE477" fill-opacity="0.22"/>
<path d="M514.214 28.6762L508.073 28.6488L507.911 58.5674L514.052 58.5948L514.214 28.6762Z" fill="#FFE477" fill-opacity="0.22"/>
<path d="M581.885 360.355L582.141 313.195L629.992 360.57L581.885 360.355Z" fill="#47BDFF" fill-opacity="0.22"/>
<path d="M101.966 296.359L21.6172 296L101.535 375.973L101.966 296.359Z" fill="#FF8A00" fill-opacity="0.28"/>
<ellipse cx="2.5589" cy="2.53551" rx="2.5589" ry="2.53551" transform="matrix(0.99999 0.0044682 -0.00541614 0.999985 17.4375 312.717)" fill="#FF8A00" fill-opacity="0.28"/>
<ellipse cx="2.5589" cy="2.53551" rx="2.5589" ry="2.53551" transform="matrix(0.99999 0.0044682 -0.00541614 0.999985 17.3438 328.943)" fill="#FF8A00" fill-opacity="0.28"/>
<ellipse cx="2.5589" cy="2.53551" rx="2.5589" ry="2.53551" transform="matrix(0.99999 0.0044682 -0.00541614 0.999985 17.2734 342.127)" fill="#FF8A00" fill-opacity="0.28"/>
<ellipse cx="2.5589" cy="2.53551" rx="2.5589" ry="2.53551" transform="matrix(0.99999 0.0044682 -0.00541614 0.999985 17.1914 358.354)" fill="#FF8A00" fill-opacity="0.28"/>
<ellipse cx="2.5589" cy="2.53551" rx="2.5589" ry="2.53551" transform="matrix(0.99999 0.0044682 -0.00541614 0.999985 17.0938 374.582)" fill="#FF8A00" fill-opacity="0.28"/>
<ellipse cx="2.5589" cy="2.53551" rx="2.5589" ry="2.53551" transform="matrix(0.99999 0.0044682 -0.00541614 0.999985 17.0273 387.766)" fill="#FF8A00" fill-opacity="0.28"/>
<ellipse cx="2.5589" cy="2.53551" rx="2.5589" ry="2.53551" transform="matrix(0.99999 0.0044682 -0.00541614 0.999985 25.418 350.277)" fill="#FF8A00" fill-opacity="0.28"/>
<ellipse cx="2.5589" cy="2.53551" rx="2.5589" ry="2.53551" transform="matrix(0.99999 0.0044682 -0.00541614 0.999985 25.332 366.502)" fill="#FF8A00" fill-opacity="0.28"/>
<ellipse cx="2.5589" cy="2.53551" rx="2.5589" ry="2.53551" transform="matrix(0.99999 0.0044682 -0.00541614 0.999985 25.2578 379.689)" fill="#FF8A00" fill-opacity="0.28"/>
<ellipse cx="2.5589" cy="2.53551" rx="2.5589" ry="2.53551" transform="matrix(0.99999 0.0044682 -0.00541614 0.999985 32.5391 357.408)" fill="#FF8A00" fill-opacity="0.28"/>
<ellipse cx="2.5589" cy="2.53551" rx="2.5589" ry="2.53551" transform="matrix(0.99999 0.0044682 -0.00541614 0.999985 32.457 373.635)" fill="#FF8A00" fill-opacity="0.28"/>
<ellipse cx="2.5589" cy="2.53551" rx="2.5589" ry="2.53551" transform="matrix(0.99999 0.0044682 -0.00541614 0.999985 32.3828 386.82)" fill="#FF8A00" fill-opacity="0.28"/>
<ellipse cx="2.5589" cy="2.53551" rx="2.5589" ry="2.53551" transform="matrix(0.99999 0.0044682 -0.00541614 0.999985 39.6719 364.541)" fill="#FF8A00" fill-opacity="0.28"/>
<ellipse cx="2.5589" cy="2.53551" rx="2.5589" ry="2.53551" transform="matrix(0.99999 0.0044682 -0.00541614 0.999985 39.5781 380.766)" fill="#FF8A00" fill-opacity="0.28"/>
<ellipse cx="2.5589" cy="2.53551" rx="2.5589" ry="2.53551" transform="matrix(0.99999 0.0044682 -0.00541614 0.999985 39.5078 393.949)" fill="#FF8A00" fill-opacity="0.28"/>
<ellipse cx="2.5589" cy="2.53551" rx="2.5589" ry="2.53551" transform="matrix(0.99999 0.0044682 -0.00541614 0.999985 24.1445 395.91)" fill="#FF8A00" fill-opacity="0.28"/>
<ellipse cx="2.5589" cy="2.53551" rx="2.5589" ry="2.53551" transform="matrix(0.99999 0.0044682 -0.00541614 0.999985 84.5352 396.182)" fill="#FF8A00" fill-opacity="0.28"/>
<ellipse cx="2.5589" cy="2.53551" rx="2.5589" ry="2.53551" transform="matrix(0.99999 0.0044682 -0.00541614 0.999985 28.5469 339.135)" fill="#FF8A00" fill-opacity="0.28"/>
<ellipse cx="2.5589" cy="2.53551" rx="2.5589" ry="2.53551" transform="matrix(0.99999 0.0044682 -0.00541614 0.999985 47.8945 357.479)" fill="#FF8A00" fill-opacity="0.28"/>
<ellipse cx="2.5589" cy="2.53551" rx="2.5589" ry="2.53551" transform="matrix(0.99999 0.0044682 -0.00541614 0.999985 47.8125 373.705)" fill="#FF8A00" fill-opacity="0.28"/>
<ellipse cx="2.5589" cy="2.53551" rx="2.5589" ry="2.53551" transform="matrix(0.99999 0.0044682 -0.00541614 0.999985 47.7383 386.889)" fill="#FF8A00" fill-opacity="0.28"/>
<ellipse cx="2.5589" cy="2.53551" rx="2.5589" ry="2.53551" transform="matrix(0.99999 0.0044682 -0.00541614 0.999985 53.9922 365.619)" fill="#FF8A00" fill-opacity="0.28"/>
<ellipse cx="2.5589" cy="2.53551" rx="2.5589" ry="2.53551" transform="matrix(0.99999 0.0044682 -0.00541614 0.999985 53.9023 381.844)" fill="#FF8A00" fill-opacity="0.28"/>
<ellipse cx="2.5589" cy="2.53551" rx="2.5589" ry="2.53551" transform="matrix(0.99999 0.0044682 -0.00541614 0.999985 53.8359 395.027)" fill="#FF8A00" fill-opacity="0.28"/>
<ellipse cx="2.5589" cy="2.53551" rx="2.5589" ry="2.53551" transform="matrix(0.99999 0.0044682 -0.00541614 0.999985 62.2266 357.543)" fill="#FF8A00" fill-opacity="0.28"/>
<ellipse cx="2.5589" cy="2.53551" rx="2.5589" ry="2.53551" transform="matrix(0.99999 0.0044682 -0.00541614 0.999985 62.1367 373.768)" fill="#FF8A00" fill-opacity="0.28"/>
<ellipse cx="2.5589" cy="2.53551" rx="2.5589" ry="2.53551" transform="matrix(0.99999 0.0044682 -0.00541614 0.999985 62.0664 386.951)" fill="#FF8A00" fill-opacity="0.28"/>
<ellipse cx="2.5589" cy="2.53551" rx="2.5589" ry="2.53551" transform="matrix(0.99999 0.0044682 -0.00541614 0.999985 70.3711 365.689)" fill="#FF8A00" fill-opacity="0.28"/>
<ellipse cx="2.5589" cy="2.53551" rx="2.5589" ry="2.53551" transform="matrix(0.99999 0.0044682 -0.00541614 0.999985 70.2812 381.918)" fill="#FF8A00" fill-opacity="0.28"/>
<ellipse cx="2.5589" cy="2.53551" rx="2.5589" ry="2.53551" transform="matrix(0.99999 0.0044682 -0.00541614 0.999985 70.2148 395.102)" fill="#FF8A00" fill-opacity="0.28"/>
<ellipse cx="2.54926" cy="2.5452" rx="2.54926" ry="2.5452" transform="matrix(0.73817 -0.674615 0.681298 0.732006 24.5508 322.289)" fill="#FF8A00" fill-opacity="0.28"/>
<ellipse cx="2.54926" cy="2.5452" rx="2.54926" ry="2.5452" transform="matrix(0.73817 -0.674615 0.681298 0.732006 35.6406 334.215)" fill="#FF8A00" fill-opacity="0.28"/>
<ellipse cx="2.54926" cy="2.5452" rx="2.54926" ry="2.5452" transform="matrix(0.73817 -0.674615 0.681298 0.732006 44.6602 343.902)" fill="#FF8A00" fill-opacity="0.28"/>
<ellipse cx="2.54926" cy="2.5452" rx="2.54926" ry="2.5452" transform="matrix(0.73817 -0.674615 0.681298 0.732006 77.4805 376.279)" fill="#FF8A00" fill-opacity="0.28"/>
<ellipse cx="2.54926" cy="2.5452" rx="2.54926" ry="2.5452" transform="matrix(0.73817 -0.674615 0.681298 0.732006 88.5742 388.203)" fill="#FF8A00" fill-opacity="0.28"/>
<ellipse cx="2.54926" cy="2.5452" rx="2.54926" ry="2.5452" transform="matrix(0.73817 -0.674615 0.681298 0.732006 97.5938 397.891)" fill="#FF8A00" fill-opacity="0.28"/>
<ellipse cx="4.60602" cy="4.56392" rx="4.60602" ry="4.56392" transform="matrix(0.99999 0.0044682 -0.00541614 0.999985 538.062 324.66)" fill="#47BDFF" fill-opacity="0.22"/>
<ellipse cx="4.60602" cy="4.56392" rx="4.60602" ry="4.56392" transform="matrix(0.99999 0.0044682 -0.00541614 0.999985 537.203 294.23)" fill="#47BDFF" fill-opacity="0.22"/>
<ellipse cx="4.60602" cy="4.56392" rx="4.60602" ry="4.56392" transform="matrix(0.99999 0.0044682 -0.00541614 0.999985 552.551 295.312)" fill="#47BDFF" fill-opacity="0.22"/>
<ellipse cx="4.60602" cy="4.56392" rx="4.60602" ry="4.56392" transform="matrix(0.99999 0.0044682 -0.00541614 0.999985 551.375 323.705)" fill="#47BDFF" fill-opacity="0.22"/>
<ellipse cx="4.60602" cy="4.56392" rx="4.60602" ry="4.56392" transform="matrix(0.99999 0.0044682 -0.00541614 0.999985 595.535 295.504)" fill="#47BDFF" fill-opacity="0.22"/>
<ellipse cx="4.60602" cy="4.56392" rx="4.60602" ry="4.56392" transform="matrix(0.99999 0.0044682 -0.00541614 0.999985 595.703 265.078)" fill="#47BDFF" fill-opacity="0.22"/>
<ellipse cx="4.60602" cy="4.56392" rx="4.60602" ry="4.56392" transform="matrix(0.99999 0.0044682 -0.00541614 0.999985 537.117 309.441)" fill="#47BDFF" fill-opacity="0.22"/>
<ellipse cx="4.60602" cy="4.56392" rx="4.60602" ry="4.56392" transform="matrix(0.99999 0.0044682 -0.00541614 0.999985 610.891 295.574)" fill="#47BDFF" fill-opacity="0.22"/>
<ellipse cx="4.60602" cy="4.56392" rx="4.60602" ry="4.56392" transform="matrix(0.99999 0.0044682 -0.00541614 0.999985 610.031 265.143)" fill="#47BDFF" fill-opacity="0.22"/>
<ellipse cx="4.60602" cy="4.56392" rx="4.60602" ry="4.56392" transform="matrix(0.99999 0.0044682 -0.00541614 0.999985 609.953 280.357)" fill="#47BDFF" fill-opacity="0.22"/>
<ellipse cx="4.60602" cy="4.56392" rx="4.60602" ry="4.56392" transform="matrix(0.99999 0.0044682 -0.00541614 0.999985 581.207 295.439)" fill="#47BDFF" fill-opacity="0.22"/>
<ellipse cx="4.60602" cy="4.56392" rx="4.60602" ry="4.56392" transform="matrix(0.99999 0.0044682 -0.00541614 0.999985 580.348 265.01)" fill="#47BDFF" fill-opacity="0.22"/>
<ellipse cx="4.60602" cy="4.56392" rx="4.60602" ry="4.56392" transform="matrix(0.99999 0.0044682 -0.00541614 0.999985 580.27 280.223)" fill="#47BDFF" fill-opacity="0.22"/>
<ellipse cx="4.60602" cy="4.56392" rx="4.60602" ry="4.56392" transform="matrix(0.99999 0.0044682 -0.00541614 0.999985 566.723 324.787)" fill="#47BDFF" fill-opacity="0.22"/>
<ellipse cx="4.60602" cy="4.56392" rx="4.60602" ry="4.56392" transform="matrix(0.99999 0.0044682 -0.00541614 0.999985 565.863 294.357)" fill="#47BDFF" fill-opacity="0.22"/>
<ellipse cx="4.60602" cy="4.56392" rx="4.60602" ry="4.56392" transform="matrix(0.99999 0.0044682 -0.00541614 0.999985 565.777 309.57)" fill="#47BDFF" fill-opacity="0.22"/>
<ellipse cx="17.9123" cy="17.2415" rx="17.9123" ry="17.2415" transform="matrix(0.99999 0.0044682 -0.00541614 0.999985 603.863 106.66)" fill="#FFE477" fill-opacity="0.22"/>
<path d="M637.553 28.7203L576.14 28.4459L637.209 92.1071L637.553 28.7203Z" fill="#FFE477" fill-opacity="0.22"/>
<path d="M575.045 41.6258L575.075 36.0478L630.556 92.0774L624.927 92.0523L575.045 41.6258Z" fill="#FFE477" fill-opacity="0.22"/>
<path d="M574.973 54.8103L575.009 48.218L618.786 92.0248L612.644 91.9974L574.973 54.8103Z" fill="#FFE477" fill-opacity="0.22"/>
<path d="M574.91 66.4734L574.943 60.3883L605.991 91.9676L599.85 91.9402L574.91 66.4734Z" fill="#FFE477" fill-opacity="0.22"/>
<path d="M574.842 79.1508L574.875 73.0657L593.709 91.9128L588.591 91.8899L574.842 79.1508Z" fill="#FFE477" fill-opacity="0.22"/>
<path d="M574.773 91.8282L574.806 85.743L581.426 91.8579L574.773 91.8282Z" fill="#FFE477" fill-opacity="0.22"/>
<path d="M549.448 43.0327L534.527 57.6722L549.28 73.9655L564.204 58.819L549.448 43.0327Z" fill="#FFE477" fill-opacity="0.22"/>
<path d="M480.95 28.0206L476.344 28L476.179 58.4257L480.785 58.4463L480.95 28.0206Z" fill="#FFE477" fill-opacity="0.22"/>
<path d="M637.553 28.7203L576.14 28.4459L637.209 92.1071L637.553 28.7203Z" fill="#FFE477" fill-opacity="0.22"/>
<path d="M575.045 41.6258L575.075 36.0478L630.556 92.0774L624.927 92.0523L575.045 41.6258Z" fill="#FFE477" fill-opacity="0.22"/>
<path d="M574.973 54.8103L575.009 48.218L618.786 92.0248L612.644 91.9974L574.973 54.8103Z" fill="#FFE477" fill-opacity="0.22"/>
<path d="M574.91 66.4734L574.943 60.3883L605.991 91.9676L599.85 91.9402L574.91 66.4734Z" fill="#FFE477" fill-opacity="0.22"/>
<path d="M574.842 79.1508L574.875 73.0657L593.709 91.9128L588.591 91.8899L574.842 79.1508Z" fill="#FFE477" fill-opacity="0.22"/>
<path d="M574.773 91.8282L574.806 85.743L581.426 91.8579L574.773 91.8282Z" fill="#FFE477" fill-opacity="0.22"/>
<path d="M549.448 43.0327L534.527 57.6722L549.28 73.9655L564.204 58.819L549.448 43.0327Z" fill="#FFE477" fill-opacity="0.22"/>
<path d="M480.95 28.0206L476.344 28L476.179 58.4257L480.785 58.4463L480.95 28.0206Z" fill="#FFE477" fill-opacity="0.22"/>
<path d="M0.471621 26.876L26.7177 0.116623L26.4238 54.3757L0.471621 26.876Z" fill="#89D5F4" fill-opacity="0.22"/>
<path d="M36.3352 114.259L36.6153 62.535L62.5758 88.5134L36.3352 114.259Z" fill="#89D5F4" fill-opacity="0.22"/>
<ellipse cx="5.62958" cy="5.57812" rx="5.62958" ry="5.57812" transform="matrix(0.99999 0.0044682 -0.00541614 0.999985 36.4258 2.1875)" fill="#89D5F4" fill-opacity="0.22"/>
<ellipse cx="5.62958" cy="5.57812" rx="5.62958" ry="5.57812" transform="matrix(0.99999 0.0044682 -0.00541614 0.999985 35.293 22.4648)" fill="#89D5F4" fill-opacity="0.22"/>
<ellipse cx="5.62958" cy="5.57812" rx="5.62958" ry="5.57812" transform="matrix(0.99999 0.0044682 -0.00541614 0.999985 36.2109 42.7559)" fill="#89D5F4" fill-opacity="0.22"/>
<ellipse cx="5.62958" cy="5.57812" rx="5.62958" ry="5.57812" transform="matrix(0.99999 0.0044682 -0.00541614 0.999985 56.8984 2.28125)" fill="#89D5F4" fill-opacity="0.22"/>
<ellipse cx="5.62958" cy="5.57812" rx="5.62958" ry="5.57812" transform="matrix(0.99999 0.0044682 -0.00541614 0.999985 55.7578 22.5586)" fill="#89D5F4" fill-opacity="0.22"/>
<ellipse cx="5.62958" cy="5.57812" rx="5.62958" ry="5.57812" transform="matrix(0.99999 0.0044682 -0.00541614 0.999985 56.6758 42.8457)" fill="#89D5F4" fill-opacity="0.22"/>
<ellipse cx="5.62958" cy="5.57812" rx="5.62958" ry="5.57812" transform="matrix(0.99999 0.0044682 -0.00541614 0.999985 56.8984 2.28125)" fill="#89D5F4" fill-opacity="0.22"/>
<ellipse cx="5.62958" cy="5.57812" rx="5.62958" ry="5.57812" transform="matrix(0.99999 0.0044682 -0.00541614 0.999985 55.7578 22.5586)" fill="#89D5F4" fill-opacity="0.22"/>
<ellipse cx="5.62958" cy="5.57812" rx="5.62958" ry="5.57812" transform="matrix(0.99999 0.0044682 -0.00541614 0.999985 56.6758 42.8457)" fill="#89D5F4" fill-opacity="0.22"/>
<ellipse cx="5.62958" cy="5.57812" rx="5.62958" ry="5.57812" transform="matrix(0.99999 0.0044682 -0.00541614 0.999985 76.3438 2.36523)" fill="#89D5F4" fill-opacity="0.22"/>
<ellipse cx="5.62958" cy="5.57812" rx="5.62958" ry="5.57812" transform="matrix(0.99999 0.0044682 -0.00541614 0.999985 75.207 22.6465)" fill="#89D5F4" fill-opacity="0.22"/>
<ellipse cx="5.62958" cy="5.57812" rx="5.62958" ry="5.57812" transform="matrix(0.99999 0.0044682 -0.00541614 0.999985 76.125 42.9336)" fill="#89D5F4" fill-opacity="0.22"/>
</svg>
