<svg width="2558" height="1044" viewBox="0 0 2558 1044" fill="none" xmlns="http://www.w3.org/2000/svg">
<path d="M1824.31 212.615L1600.81 385.844C1595.65 381.289 1580.15 359.561 1545.81 334.695C1502.81 303.552 1506.81 305.417 1459.31 291.178C1277.81 252.228 1169.2 386.05 1155.31 493.285C1143.81 582.095 1184.65 647.157 1207.81 674.321C1235.48 704.087 1325.31 769.483 1423.31 758.162C1521.31 746.841 1588.15 683.829 1609.31 653.737L1814.31 814.278L1810.31 829.405C1797.15 861.286 1729.31 962.219 1505.81 1031.91C1283.41 1082.27 1086.48 950.421 1015.81 878.202C996.646 856.081 915.912 818.085 746.312 843.069C534.312 874.298 316.312 693.263 251.312 644.466C199.312 605.429 172.312 578.678 72.3125 614.3C76.3125 593.317 165.614 552.142 215.312 570.871C265.812 589.901 420.312 638.122 442.812 643.002C465.312 647.882 521.312 650.322 588.812 640.074C656.312 629.827 754.812 583.47 777.312 563.951C762.312 554.192 694.812 522.962 660.812 511.739C626.812 500.516 586.812 504.42 571.812 505.396C559.812 506.176 524.479 515.805 508.312 520.522L475.312 528.33C423.979 534.836 307.613 532.331 252.812 470.262C322.012 476.898 381.646 448.629 402.812 433.664C436.312 405.525 522.712 346.513 600.312 335.583C697.312 321.92 712.812 336.559 758.312 328.751C744.812 298.009 704.312 236.526 622.312 189.193C556.712 151.326 509.312 155.523 493.812 162.355C500.479 154.71 532.612 135.516 607.812 119.901C683.013 112.094 728.812 129.748 742.312 139.508C760.312 149.755 796.412 182.947 864.812 189.193C933.213 195.439 975.812 184.889 988.312 175.53L1073.81 103.799C1123.65 64.4361 1257.23 -6.5118 1386.81 1.41619C1546.31 11.1749 1550.31 17.4287 1668.81 70.6171C1763.61 113.168 1811.98 183.012 1824.31 212.615Z" fill="url(#paint0_linear_0_1)"/>
<path d="M2392.53 191.552C2402.4 250.349 2365.08 300.226 2303.01 306.492C2283.59 308.452 2263.97 308.465 2244.35 308.479C2225.42 308.492 2206.47 308.505 2187.71 310.269C2150.89 313.73 2113.95 319.91 2078.2 329.174C2050.84 336.263 2035.39 357.949 2038.76 386.938C2042.2 416.476 2066.4 426.482 2091.65 429.036C2105.91 430.479 2120.35 430.042 2134.8 429.604C2147.13 429.23 2159.47 428.856 2171.71 429.65C2191.05 430.903 2210.54 431.604 2230.04 432.305C2280.23 434.111 2330.49 435.919 2378.45 447.14C2537.67 484.39 2602.34 633.11 2524.87 776.012C2456.15 902.749 2338.46 963.195 2202.92 995.539C2141.85 1010.11 2079.54 1012.99 2018.71 996.434C1992.17 989.213 1967.55 975.091 1942.81 960.901C1939.34 958.913 1935.87 956.923 1932.4 954.951C1933 952.408 1933.51 950.1 1933.99 947.968C1935.12 942.844 1936.03 938.736 1937.47 934.82C1938.73 931.392 1939.94 927.238 1941.16 923.025C1944.26 912.342 1947.48 901.28 1951.94 900.72C1961.42 899.529 1971.79 904.477 1981.97 909.334C1985.29 910.92 1988.6 912.496 1991.84 913.845C1994.21 914.832 1996.1 916.898 1998.01 918.98C1999.08 920.145 2000.15 921.314 2001.31 922.303C2028.1 945.096 2051 942.371 2071.13 914.38C2079.45 902.813 2087.98 891.393 2096.5 879.972C2100.34 874.835 2104.17 869.698 2107.99 864.547C2113 868.479 2118.08 872.341 2123.15 876.203C2134.65 884.95 2146.14 893.697 2156.9 903.258C2174.45 918.86 2185.83 913.795 2192.61 894.229C2197.05 881.393 2199.67 867.741 2201.44 854.24C2204.03 834.361 2213.91 825.359 2234.55 822.653C2245.2 821.256 2262.46 811.28 2263.02 804.127C2263.91 792.657 2260.76 780.876 2257.36 768.206C2255.87 762.66 2254.34 756.945 2253.08 751.011C2252.04 739.557 2251.44 730.725 2251.03 719.359C2246 678.676 2232.02 663.739 2195.2 660.154C2185.57 659.217 2175.83 659.499 2166.08 659.781C2158.66 659.996 2151.25 660.211 2143.87 659.89C2123.8 659.018 2103.68 658.467 2083.57 657.916C2033.08 656.534 1982.58 655.151 1932.76 648.679C1869.17 640.419 1811.93 613.127 1777.09 555.813C1781.84 540.081 1784.46 525.067 1786.52 509.978C1791.98 469.962 1809.05 459.999 1844.46 476.434C1891.68 498.354 1905.31 488.653 1907.58 435.22C1908.96 402.733 1911.69 369.872 1918.52 338.175C1924.56 310.165 1945.42 304.874 1969.31 321.124C1975.47 325.309 1981.59 329.538 1987.69 333.803C2022.16 357.901 2038.76 350.222 2046.96 307.649C2047.19 306.491 2047.41 305.332 2047.63 304.172C2051.99 281.517 2056.4 258.586 2064.34 237.074C2079.63 195.64 2104.47 191.776 2135.35 223.079C2138.07 225.835 2140.78 228.607 2143.5 231.38C2160.11 248.352 2176.82 265.42 2195.59 279.715C2221.01 299.072 2242.87 291.229 2252.89 262.778C2261.04 239.633 2265.13 228.032 2272.64 225.055C2280.19 222.063 2291.19 227.779 2313.25 239.239C2313.61 239.426 2313.98 239.603 2314.34 239.781C2314.94 240.071 2315.54 240.362 2316.11 240.693C2337.22 252.878 2347.22 248.161 2347.81 222.719C2348.77 181.912 2349.53 181.93 2392.53 191.552ZM2468.25 800.611C2503.49 746.85 2517.92 688.018 2504.91 625.195C2487.46 540.88 2424.02 500.078 2348.77 472.339C2296.08 452.914 2241.79 454.104 2187.46 455.295C2169.24 455.695 2151.01 456.094 2132.84 455.716C2063.28 454.267 2002.62 434.218 1966.99 368.655C1964.93 364.87 1963.33 360.844 1961.73 356.817C1960.98 354.946 1960.24 353.075 1959.45 351.229L1946.61 356.899C1945.76 360.771 1944.79 364.631 1943.83 368.491C1941.69 377.004 1939.56 385.518 1938.75 394.153C1937.66 405.832 1937.09 417.569 1936.52 429.302C1935.76 444.949 1935 460.59 1933 476.078C1928.48 510.958 1910.95 522.002 1877.54 513.893C1874.78 513.223 1872.05 512.19 1869.33 511.161C1864.9 509.482 1860.51 507.816 1856.06 507.762C1854.78 507.746 1853.42 507.716 1852.02 507.686C1841.31 507.453 1827.7 507.158 1824.42 512.357C1818.81 521.272 1817.09 540.458 1823.06 547.182C1825.05 549.436 1827.06 551.732 1829.09 554.049C1846.52 573.947 1865.29 595.379 1888.14 604.109C1922.96 617.411 1962.75 620.74 2000.68 622.569C2025.43 623.761 2050.28 622.963 2075.13 622.164C2101.73 621.31 2128.33 620.455 2154.78 622.044C2239.05 627.105 2279.49 636.941 2300.85 732.814C2310.77 777.378 2312.61 824.065 2258.88 850.589C2247.96 855.979 2240.71 873.415 2236.66 886.753C2222.88 932.113 2172.9 950.277 2136.45 919.871C2119.26 905.532 2111.62 909.253 2098.59 924.732C2065.62 963.915 2045.37 967.311 1997.73 947.648C1994.48 946.308 1990.78 946.044 1987.08 945.781C1985.36 945.658 1983.65 945.536 1981.97 945.306L1978.35 955.367C1984.18 957.781 1989.94 960.557 1995.71 963.333C2008.26 969.377 2020.81 975.42 2034.03 977.728C2107.87 990.621 2180.23 984.898 2250.96 957.654C2336.18 924.826 2412.1 880.248 2468.25 800.611Z" fill="#68B6DD"/>
<path d="M2392.53 191.552C2402.4 250.349 2365.08 300.226 2303.01 306.492C2283.59 308.452 2263.97 308.465 2244.35 308.479C2225.42 308.492 2206.47 308.505 2187.71 310.269C2150.89 313.73 2113.95 319.91 2078.2 329.174C2050.84 336.263 2035.39 357.949 2038.76 386.938C2042.2 416.476 2066.4 426.482 2091.65 429.036C2105.91 430.479 2120.35 430.042 2134.8 429.604C2147.13 429.23 2159.47 428.856 2171.71 429.65C2191.05 430.903 2210.54 431.604 2230.04 432.305C2280.23 434.111 2330.49 435.919 2378.45 447.14C2537.67 484.39 2602.34 633.11 2524.87 776.012C2456.15 902.749 2338.46 963.195 2202.92 995.539C2141.85 1010.11 2079.54 1012.99 2018.71 996.434C1992.17 989.213 1967.55 975.091 1942.81 960.901C1939.34 958.913 1935.87 956.923 1932.4 954.951C1933 952.408 1933.51 950.1 1933.99 947.968C1935.12 942.844 1936.03 938.736 1937.47 934.82C1938.73 931.392 1939.94 927.238 1941.16 923.025C1944.26 912.342 1947.48 901.28 1951.94 900.72C1961.42 899.529 1971.79 904.477 1981.97 909.334C1985.29 910.92 1988.6 912.496 1991.84 913.845C1994.21 914.832 1996.1 916.898 1998.01 918.98C1999.08 920.145 2000.15 921.314 2001.31 922.303C2028.1 945.096 2051 942.371 2071.13 914.38C2079.45 902.813 2087.98 891.393 2096.5 879.972C2100.34 874.835 2104.17 869.698 2107.99 864.547C2113 868.479 2118.08 872.341 2123.15 876.203C2134.65 884.95 2146.14 893.697 2156.9 903.258C2174.45 918.86 2185.83 913.795 2192.61 894.229C2197.05 881.393 2199.67 867.741 2201.44 854.24C2204.03 834.361 2213.91 825.359 2234.55 822.653C2245.2 821.256 2262.46 811.28 2263.02 804.127C2263.91 792.657 2260.76 780.876 2257.36 768.206C2255.87 762.66 2254.34 756.945 2253.08 751.011C2252.04 739.557 2251.44 730.725 2251.03 719.359C2246 678.676 2232.02 663.739 2195.2 660.154C2185.57 659.217 2175.83 659.499 2166.08 659.781C2158.66 659.996 2151.25 660.211 2143.87 659.89C2123.8 659.018 2103.68 658.467 2083.57 657.916C2033.08 656.534 1982.58 655.151 1932.76 648.679C1869.17 640.419 1811.93 613.127 1777.09 555.813C1781.84 540.081 1784.46 525.067 1786.52 509.978C1791.98 469.962 1809.05 459.999 1844.46 476.434C1891.68 498.354 1905.31 488.653 1907.58 435.22C1908.96 402.733 1911.69 369.872 1918.52 338.175C1924.56 310.165 1945.42 304.874 1969.31 321.124C1975.47 325.309 1981.59 329.538 1987.69 333.803C2022.16 357.901 2038.76 350.222 2046.96 307.649C2047.19 306.491 2047.41 305.332 2047.63 304.172C2051.99 281.517 2056.4 258.586 2064.34 237.074C2079.63 195.64 2104.47 191.776 2135.35 223.079C2138.07 225.835 2140.78 228.607 2143.5 231.38C2160.11 248.352 2176.82 265.42 2195.59 279.715C2221.01 299.072 2242.87 291.229 2252.89 262.778C2261.04 239.633 2265.13 228.032 2272.64 225.055C2280.19 222.063 2291.19 227.779 2313.25 239.239C2313.61 239.426 2313.98 239.603 2314.34 239.781C2314.94 240.071 2315.54 240.362 2316.11 240.693C2337.22 252.878 2347.22 248.161 2347.81 222.719C2348.77 181.912 2349.53 181.93 2392.53 191.552ZM2468.25 800.611C2503.49 746.85 2517.92 688.018 2504.91 625.195C2487.46 540.88 2424.02 500.078 2348.77 472.339C2296.08 452.914 2241.79 454.104 2187.46 455.295C2169.24 455.695 2151.01 456.094 2132.84 455.716C2063.28 454.267 2002.62 434.218 1966.99 368.655C1964.93 364.87 1963.33 360.844 1961.73 356.817C1960.98 354.946 1960.24 353.075 1959.45 351.229L1946.61 356.899C1945.76 360.771 1944.79 364.631 1943.83 368.491C1941.69 377.004 1939.56 385.518 1938.75 394.153C1937.66 405.832 1937.09 417.569 1936.52 429.302C1935.76 444.949 1935 460.59 1933 476.078C1928.48 510.958 1910.95 522.002 1877.54 513.893C1874.78 513.223 1872.05 512.19 1869.33 511.161C1864.9 509.482 1860.51 507.816 1856.06 507.762C1854.78 507.746 1853.42 507.716 1852.02 507.686C1841.31 507.453 1827.7 507.158 1824.42 512.357C1818.81 521.272 1817.09 540.458 1823.06 547.182C1825.05 549.436 1827.06 551.732 1829.09 554.049C1846.52 573.947 1865.29 595.379 1888.14 604.109C1922.96 617.411 1962.75 620.74 2000.68 622.569C2025.43 623.761 2050.28 622.963 2075.13 622.164C2101.73 621.31 2128.33 620.455 2154.78 622.044C2239.05 627.105 2279.49 636.941 2300.85 732.814C2310.77 777.378 2312.61 824.065 2258.88 850.589C2247.96 855.979 2240.71 873.415 2236.66 886.753C2222.88 932.113 2172.9 950.277 2136.45 919.871C2119.26 905.532 2111.62 909.253 2098.59 924.732C2065.62 963.915 2045.37 967.311 1997.73 947.648C1994.48 946.308 1990.78 946.044 1987.08 945.781C1985.36 945.658 1983.65 945.536 1981.97 945.306L1978.35 955.367C1984.18 957.781 1989.94 960.557 1995.71 963.333C2008.26 969.377 2020.81 975.42 2034.03 977.728C2107.87 990.621 2180.23 984.898 2250.96 957.654C2336.18 924.826 2412.1 880.248 2468.25 800.611Z" stroke="black"/>
<path d="M1897.83 184.417C2011.35 111.966 2134.48 79.0698 2269.47 98.9096C2313.06 105.315 2354.66 118.517 2381.23 158.618C2337 147.641 2337.87 169.173 2338.73 190.701C2339.17 201.533 2339.61 212.365 2334.3 219.053C2332.71 218.921 2330.99 218.906 2329.21 218.891C2325.14 218.856 2320.76 218.818 2316.95 217.353C2304.41 212.529 2292.09 207.135 2279.77 201.74C2275.01 199.655 2270.25 197.571 2265.48 195.519C2263.28 200.837 2261.15 206.183 2259.02 211.53C2254.24 223.551 2249.45 235.572 2243.94 247.265C2233.64 269.153 2220.08 279.871 2197.76 258.678C2180.22 242.025 2162.17 225.887 2144.13 209.749C2137.66 203.958 2131.18 198.167 2124.73 192.352C2097.77 168.056 2073.51 172.934 2059.82 206.868C2053.13 223.464 2049.24 241.334 2045.6 258.935C2029.32 337.681 2028.36 338.212 1963.29 293.689C1935.76 274.848 1919.64 279.286 1912.82 312.496C1907.99 336.012 1906.28 360.173 1904.57 384.311C1903.96 392.916 1903.36 401.518 1902.61 410.088C1897.86 464.34 1885.83 471.61 1836.48 449.38C1802.84 434.226 1786.56 443.284 1782.38 480.484C1781.43 488.911 1780.61 497.352 1779.8 505.769C1778.07 523.626 1776.35 541.375 1773.42 558.655C1771.63 556.029 1769.84 553.467 1768.07 550.945C1760.71 540.461 1753.83 530.667 1750.25 519.813C1727.07 449.575 1739.61 382.715 1772.06 318.042C1772.47 317.222 1772.84 316.48 1773.18 315.806C1776.31 309.539 1776.51 309.129 1779.38 306.216C1779.38 306.216 1782.5 299.806 1787.34 293.372C1788.18 292.257 1788.47 291.475 1788.74 290.729C1789.09 289.766 1789.42 288.862 1790.89 287.377C1827.54 252.238 1862.68 218.333 1897.82 184.428L1897.83 184.417Z" fill="#E7EAEB"/>
<path d="M1897.83 184.417C2011.35 111.966 2134.48 79.0698 2269.47 98.9096C2313.06 105.315 2354.66 118.517 2381.23 158.618C2337 147.641 2337.87 169.173 2338.73 190.701C2339.17 201.533 2339.61 212.365 2334.3 219.053C2332.71 218.921 2330.99 218.906 2329.21 218.891C2325.14 218.856 2320.76 218.818 2316.95 217.353C2304.41 212.529 2292.09 207.135 2279.77 201.74C2275.01 199.655 2270.25 197.571 2265.48 195.519C2263.28 200.837 2261.15 206.183 2259.02 211.53C2254.24 223.551 2249.45 235.572 2243.94 247.265C2233.64 269.153 2220.08 279.871 2197.76 258.678C2180.22 242.025 2162.17 225.887 2144.13 209.749C2137.66 203.958 2131.18 198.167 2124.73 192.352C2097.77 168.056 2073.51 172.934 2059.82 206.868C2053.13 223.464 2049.24 241.334 2045.6 258.935C2029.32 337.681 2028.36 338.212 1963.29 293.689C1935.76 274.848 1919.64 279.286 1912.82 312.496C1907.99 336.012 1906.28 360.173 1904.57 384.311C1903.96 392.916 1903.36 401.518 1902.61 410.088C1897.86 464.34 1885.83 471.61 1836.48 449.38C1802.84 434.226 1786.56 443.284 1782.38 480.484C1781.43 488.911 1780.61 497.352 1779.8 505.769C1778.07 523.626 1776.35 541.375 1773.42 558.655C1771.63 556.029 1769.84 553.467 1768.07 550.945C1760.71 540.461 1753.83 530.667 1750.25 519.813C1727.07 449.575 1739.61 382.715 1772.06 318.042C1772.47 317.222 1772.84 316.48 1773.18 315.806C1776.31 309.539 1776.51 309.129 1779.38 306.216C1779.38 306.216 1782.5 299.806 1787.34 293.372C1788.18 292.257 1788.47 291.475 1788.74 290.729C1789.09 289.766 1789.42 288.862 1790.89 287.377C1827.54 252.238 1862.68 218.333 1897.82 184.428L1897.83 184.417Z" stroke="black"/>
<path d="M1766.96 550.47C1767.66 542.337 1768.3 534.197 1768.95 526.058C1770.39 507.828 1771.83 489.598 1773.88 471.434C1778.07 434.276 1794.36 425.228 1828.02 440.363C1877.41 462.567 1889.46 455.305 1894.21 401.114C1894.96 392.555 1895.57 383.962 1896.17 375.367C1897.88 351.257 1899.59 327.124 1904.43 303.635C1911.26 270.462 1927.39 266.029 1954.94 284.848C2020.06 329.317 2021.02 328.788 2037.32 250.131C2040.96 232.551 2044.85 214.7 2051.55 198.124C2065.25 164.228 2089.53 159.355 2116.51 183.622C2122.97 189.43 2129.45 195.215 2135.93 200.999C2153.98 217.118 2172.04 233.237 2189.6 249.87C2211.94 271.039 2225.51 260.332 2235.82 238.469C2241.32 226.789 2246.12 214.782 2250.91 202.774C2253.04 197.433 2255.17 192.093 2257.37 186.781C2262.15 188.831 2266.91 190.913 2271.68 192.996C2284 198.384 2296.33 203.772 2308.88 208.589C2312.7 210.053 2317.07 210.09 2321.15 210.125C2322.93 210.14 2324.65 210.155 2326.24 210.288C2331.55 203.616 2331.12 192.818 2330.7 182.096C2329.85 160.742 2329.01 139.687 2373.51 152.127C2375.56 151.403 2375.57 151.486 2375.7 152.268C2375.73 152.43 2375.76 152.621 2375.82 152.842C2377.91 155.357 2379.67 156.584 2381.43 157.812C2386.34 168.857 2391.25 179.901 2395.86 193.288C2352.45 186.01 2351.68 185.992 2350.72 226.8C2350.12 252.242 2340.1 256.96 2318.92 244.775C2318.35 244.444 2317.75 244.154 2317.15 243.863C2316.79 243.686 2316.42 243.508 2316.06 243.322C2293.92 231.856 2282.89 226.14 2275.32 229.144C2267.8 232.13 2263.7 243.731 2255.53 266.863C2245.48 295.316 2223.55 303.16 2198.06 283.804C2179.24 269.509 2162.48 252.441 2145.82 235.47C2143.1 232.696 2140.38 229.925 2137.65 227.169C2106.69 195.866 2081.77 199.731 2066.44 241.166C2058.47 262.679 2054.05 285.61 2049.68 308.266C2049.46 309.426 2049.23 310.585 2049.01 311.744C2040.78 354.318 2024.13 361.998 1989.57 337.9C1983.45 333.636 1977.31 329.407 1971.14 325.221C1947.18 308.972 1926.26 314.265 1920.2 342.276C1913.35 373.974 1910.61 406.835 1909.23 439.322C1906.95 492.757 1893.28 502.459 1845.92 480.54C1810.41 464.107 1793.29 474.07 1787.82 514.087C1785.75 529.177 1783.13 544.191 1776.58 559.422C1770.59 556.559 1768.77 553.514 1766.96 550.47Z" fill="#4BA8D2"/>
<path d="M1766.96 550.47C1767.66 542.337 1768.3 534.197 1768.95 526.058C1770.39 507.828 1771.83 489.598 1773.88 471.434C1778.07 434.276 1794.36 425.228 1828.02 440.363C1877.41 462.567 1889.46 455.305 1894.21 401.114C1894.96 392.555 1895.57 383.962 1896.17 375.367C1897.88 351.257 1899.59 327.124 1904.43 303.635C1911.26 270.462 1927.39 266.029 1954.94 284.848C2020.06 329.317 2021.02 328.788 2037.32 250.131C2040.96 232.551 2044.85 214.7 2051.55 198.124C2065.25 164.228 2089.53 159.355 2116.51 183.622C2122.97 189.43 2129.45 195.215 2135.93 200.999C2153.98 217.118 2172.04 233.237 2189.6 249.87C2211.94 271.039 2225.51 260.332 2235.82 238.469C2241.32 226.789 2246.12 214.782 2250.91 202.774C2253.04 197.433 2255.17 192.093 2257.37 186.781C2262.15 188.831 2266.91 190.913 2271.68 192.996C2284 198.384 2296.33 203.772 2308.88 208.589C2312.7 210.053 2317.07 210.09 2321.15 210.125C2322.93 210.14 2324.65 210.155 2326.24 210.288C2331.55 203.616 2331.12 192.818 2330.7 182.096C2329.85 160.742 2329.01 139.687 2373.51 152.127C2375.56 151.403 2375.57 151.486 2375.7 152.268C2375.73 152.43 2375.76 152.621 2375.82 152.842C2377.91 155.357 2379.67 156.584 2381.43 157.812C2386.34 168.857 2391.25 179.901 2395.86 193.288C2352.45 186.01 2351.68 185.992 2350.72 226.8C2350.12 252.242 2340.1 256.96 2318.92 244.775C2318.35 244.444 2317.75 244.154 2317.15 243.863C2316.79 243.686 2316.42 243.508 2316.06 243.322C2293.92 231.856 2282.89 226.14 2275.32 229.144C2267.8 232.13 2263.7 243.731 2255.53 266.863C2245.48 295.316 2223.55 303.16 2198.06 283.804C2179.24 269.509 2162.48 252.441 2145.82 235.47C2143.1 232.696 2140.38 229.925 2137.65 227.169C2106.69 195.866 2081.77 199.731 2066.44 241.166C2058.47 262.679 2054.05 285.61 2049.68 308.266C2049.46 309.426 2049.23 310.585 2049.01 311.744C2040.78 354.318 2024.13 361.998 1989.57 337.9C1983.45 333.636 1977.31 329.407 1971.14 325.221C1947.18 308.972 1926.26 314.265 1920.2 342.276C1913.35 373.974 1910.61 406.835 1909.23 439.322C1906.95 492.757 1893.28 502.459 1845.92 480.54C1810.41 464.107 1793.29 474.07 1787.82 514.087C1785.75 529.177 1783.13 544.191 1776.58 559.422C1770.59 556.559 1768.77 553.514 1766.96 550.47Z" stroke="black"/>
<path d="M1893.22 916.074C1892.58 903.322 1893.38 892.355 1894.76 876.778C1905.8 823.584 1940.67 801.238 1986.73 796.715C2013.42 794.094 2040.32 793.785 2067.24 793.475C2085.3 793.268 2103.37 793.06 2121.38 792.154C2172.08 789.602 2222.86 785.768 2253.37 736.35L2253.37 736.351C2253.97 745.154 2254.57 753.957 2254.99 767.652C2245.51 779.305 2235.97 787.451 2226.75 795.333C2224.77 797.023 2222.8 798.701 2220.86 800.399C2217.95 802.939 2214.9 805.415 2211.85 807.899C2202.66 815.366 2193.41 822.891 2187.51 832.371C2183.39 838.988 2182.16 847.238 2180.92 855.582C2180.09 861.143 2179.26 866.744 2177.56 871.931C2170.62 893.131 2159.79 895.251 2143.02 878.826C2094.14 830.979 2093.76 831.354 2058.38 888.075C2058.12 888.493 2057.89 888.929 2057.66 889.365C2057.39 889.867 2057.13 890.368 2056.82 890.841C2039.89 916.616 2023.78 920.286 1997.87 903.687C1993.1 900.626 1988.53 897.237 1983.96 893.851C1978.24 889.613 1972.53 885.377 1966.42 881.788C1937.41 864.751 1925.71 870.885 1922.3 903.294C1921.16 914.032 1919.37 924.702 1917.58 935.373C1916.77 940.205 1915.96 945.037 1915.21 949.876C1908.36 939.204 1901.51 928.531 1893.22 916.074Z" fill="#E2E8EA"/>
<path d="M1893.22 916.074C1892.58 903.322 1893.38 892.355 1894.76 876.778C1905.8 823.584 1940.67 801.238 1986.73 796.715C2013.42 794.094 2040.32 793.785 2067.24 793.475C2085.3 793.268 2103.37 793.06 2121.38 792.154C2172.08 789.602 2222.86 785.768 2253.37 736.35L2253.37 736.351C2253.97 745.154 2254.57 753.957 2254.99 767.652C2245.51 779.305 2235.97 787.451 2226.75 795.333C2224.77 797.023 2222.8 798.701 2220.86 800.399C2217.95 802.939 2214.9 805.415 2211.85 807.899C2202.66 815.366 2193.41 822.891 2187.51 832.371C2183.39 838.988 2182.16 847.238 2180.92 855.582C2180.09 861.143 2179.26 866.744 2177.56 871.931C2170.62 893.131 2159.79 895.251 2143.02 878.826C2094.14 830.979 2093.76 831.354 2058.38 888.075C2058.12 888.493 2057.89 888.929 2057.66 889.365C2057.39 889.867 2057.13 890.368 2056.82 890.841C2039.89 916.616 2023.78 920.286 1997.87 903.687C1993.1 900.626 1988.53 897.237 1983.96 893.851C1978.24 889.613 1972.53 885.377 1966.42 881.788C1937.41 864.751 1925.71 870.885 1922.3 903.294C1921.16 914.032 1919.37 924.702 1917.58 935.373C1916.77 940.205 1915.96 945.037 1915.21 949.876C1908.36 939.204 1901.51 928.531 1893.22 916.074Z" stroke="black"/>
<path d="M1916.62 947.445C1917.59 938.571 1918.85 930.241 1920.06 922.161C1921.25 914.299 1922.4 906.674 1923.21 899.015C1926.63 866.752 1938.33 860.645 1967.34 877.603C1973.45 881.176 1979.16 885.392 1984.88 889.611C1989.45 892.982 1994.02 896.354 1998.8 899.402C2024.7 915.924 2040.82 912.269 2057.74 886.61C2058.05 886.139 2058.32 885.64 2058.59 885.141C2058.82 884.707 2059.05 884.273 2059.31 883.857C2094.7 827.388 2095.08 827.016 2143.95 874.644C2160.73 890.994 2171.56 888.882 2178.5 867.777C2180.2 862.614 2181.04 857.038 2181.87 851.502C2183.11 843.196 2184.33 834.982 2188.45 828.395C2194.35 818.958 2203.61 811.466 2212.8 804.032C2215.85 801.56 2218.9 799.094 2221.81 796.565C2225.46 793.399 2229.16 790.302 2232.93 787.159C2240.55 780.8 2248.39 774.253 2256.39 766.565C2257.23 769.374 2258.17 772.278 2259.14 775.254C2263.15 787.612 2267.56 801.212 2266.52 814.398C2265.96 821.495 2248.66 831.397 2237.98 832.784C2217.3 835.472 2207.4 844.405 2204.79 864.13C2203.03 877.527 2200.4 891.074 2195.94 903.81C2189.15 923.226 2177.74 928.253 2160.16 912.774C2149.38 903.289 2137.86 894.612 2126.34 885.934C2121.25 882.103 2116.17 878.272 2111.15 874.371C2107.32 879.481 2103.48 884.579 2099.63 889.676C2091.09 901.01 2082.54 912.343 2074.2 923.822C2054.02 951.599 2031.07 954.306 2004.23 931.693C2003.06 930.712 2001.99 929.552 2000.92 928.396C1999.01 926.33 1997.11 924.281 1994.74 923.302C1991.49 921.963 1988.18 920.4 1984.85 918.828C1974.64 914.009 1964.25 909.101 1954.75 910.284C1950.28 910.841 1947.06 921.817 1943.95 932.418C1942.72 936.598 1941.51 940.72 1940.25 944.121C1939.44 946.286 1938.8 948.509 1938.14 950.824C1937.11 954.394 1936.02 958.18 1934.17 962.302C1927.43 958.76 1922.28 954.132 1916.62 947.445Z" fill="#4BA8D2"/>
<path d="M1916.62 947.445C1917.59 938.571 1918.85 930.241 1920.06 922.161C1921.25 914.299 1922.4 906.674 1923.21 899.015C1926.63 866.752 1938.33 860.645 1967.34 877.603C1973.45 881.176 1979.16 885.392 1984.88 889.611C1989.45 892.982 1994.02 896.354 1998.8 899.402C2024.7 915.924 2040.82 912.269 2057.74 886.61C2058.05 886.139 2058.32 885.64 2058.59 885.141C2058.82 884.707 2059.05 884.273 2059.31 883.857C2094.7 827.388 2095.08 827.016 2143.95 874.644C2160.73 890.994 2171.56 888.882 2178.5 867.777C2180.2 862.614 2181.04 857.038 2181.87 851.502C2183.11 843.196 2184.33 834.982 2188.45 828.395C2194.35 818.958 2203.61 811.466 2212.8 804.032C2215.85 801.56 2218.9 799.094 2221.81 796.565C2225.46 793.399 2229.16 790.302 2232.93 787.159C2240.55 780.8 2248.39 774.253 2256.39 766.565C2257.23 769.374 2258.17 772.278 2259.14 775.254C2263.15 787.612 2267.56 801.212 2266.52 814.398C2265.96 821.495 2248.66 831.397 2237.98 832.784C2217.3 835.472 2207.4 844.405 2204.79 864.13C2203.03 877.527 2200.4 891.074 2195.94 903.81C2189.15 923.226 2177.74 928.253 2160.16 912.774C2149.38 903.289 2137.86 894.612 2126.34 885.934C2121.25 882.103 2116.17 878.272 2111.15 874.371C2107.32 879.481 2103.48 884.579 2099.63 889.676C2091.09 901.01 2082.54 912.343 2074.2 923.822C2054.02 951.599 2031.07 954.306 2004.23 931.693C2003.06 930.712 2001.99 929.552 2000.92 928.396C1999.01 926.33 1997.11 924.281 1994.74 923.302C1991.49 921.963 1988.18 920.4 1984.85 918.828C1974.64 914.009 1964.25 909.101 1954.75 910.284C1950.28 910.841 1947.06 921.817 1943.95 932.418C1942.72 936.598 1941.51 940.72 1940.25 944.121C1939.44 946.286 1938.8 948.509 1938.14 950.824C1937.11 954.394 1936.02 958.18 1934.17 962.302C1927.43 958.76 1922.28 954.132 1916.62 947.445Z" stroke="black"/>
<path d="M2466.08 802.332C2411.33 880.143 2335.43 924.736 2250.24 957.575C2179.55 984.828 2107.21 990.553 2033.4 977.654C2020.19 975.345 2007.64 969.299 1995.09 963.253C1989.33 960.476 1983.57 957.699 1977.74 955.285L1981.36 945.219C1983.04 945.45 1984.75 945.572 1986.47 945.695C1990.17 945.959 1993.86 946.222 1997.11 947.563C2044.73 967.233 2064.98 963.836 2097.93 924.64C2110.96 909.155 2118.6 905.433 2135.78 919.777C2172.22 950.194 2222.18 932.025 2235.95 886.649C2240 873.306 2247.25 855.864 2258.17 850.472C2311.87 823.938 2310.03 777.235 2300.11 732.655C2278.76 636.748 2238.34 626.908 2154.1 621.844C2127.66 620.254 2101.07 621.108 2074.48 621.963C2049.64 622.762 2024.8 623.56 2000.06 622.367C1962.14 620.538 1922.36 617.207 1887.56 603.9C1864.72 595.166 1845.96 573.726 1828.54 553.822C1826.51 551.503 1824.5 549.206 1822.5 546.952C1816.54 540.225 1818.26 521.032 1823.87 512.114C1827.14 506.913 1840.75 507.209 1851.45 507.441C1852.86 507.472 1854.22 507.501 1855.49 507.517C1859.94 507.572 1864.33 509.239 1868.76 510.918C1871.48 511.947 1874.2 512.981 1876.96 513.651C1910.37 521.763 1927.89 510.716 1932.4 475.824C1934.4 460.329 1935.16 444.683 1935.92 429.03C1936.49 417.293 1937.06 405.552 1938.15 393.869C1938.96 385.23 1941.09 376.714 1943.23 368.198C1944.19 364.336 1945.16 360.475 1946 356.602L1958.84 350.929C1959.63 352.777 1960.37 354.648 1961.12 356.52C1962.72 360.548 1964.32 364.576 1966.38 368.362C2002 433.949 2062.63 454.006 2132.16 455.456C2150.33 455.835 2168.55 455.435 2186.77 455.035C2241.07 453.845 2295.34 452.654 2348.02 472.087C2423.24 499.837 2486.65 540.654 2504.1 624.999C2517.1 687.845 2502.68 746.698 2466.08 802.332Z" fill="#89D5F4"/>
<path d="M2466.08 802.332C2411.33 880.143 2335.43 924.736 2250.24 957.575C2179.55 984.828 2107.21 990.553 2033.4 977.654C2020.19 975.345 2007.64 969.299 1995.09 963.253C1989.33 960.476 1983.57 957.699 1977.74 955.285L1981.36 945.219C1983.04 945.45 1984.75 945.572 1986.47 945.695C1990.17 945.959 1993.86 946.222 1997.11 947.563C2044.73 967.233 2064.98 963.836 2097.93 924.64C2110.96 909.155 2118.6 905.433 2135.78 919.777C2172.22 950.194 2222.18 932.025 2235.95 886.649C2240 873.306 2247.25 855.864 2258.17 850.472C2311.87 823.938 2310.03 777.235 2300.11 732.655C2278.76 636.748 2238.34 626.908 2154.1 621.844C2127.66 620.254 2101.07 621.108 2074.48 621.963C2049.64 622.762 2024.8 623.56 2000.06 622.367C1962.14 620.538 1922.36 617.207 1887.56 603.9C1864.72 595.166 1845.96 573.726 1828.54 553.822C1826.51 551.503 1824.5 549.206 1822.5 546.952C1816.54 540.225 1818.26 521.032 1823.87 512.114C1827.14 506.913 1840.75 507.209 1851.45 507.441C1852.86 507.472 1854.22 507.501 1855.49 507.517C1859.94 507.572 1864.33 509.239 1868.76 510.918C1871.48 511.947 1874.2 512.981 1876.96 513.651C1910.37 521.763 1927.89 510.716 1932.4 475.824C1934.4 460.329 1935.16 444.683 1935.92 429.03C1936.49 417.293 1937.06 405.552 1938.15 393.869C1938.96 385.23 1941.09 376.714 1943.23 368.198C1944.19 364.336 1945.16 360.475 1946 356.602L1958.84 350.929C1959.63 352.777 1960.37 354.648 1961.12 356.52C1962.72 360.548 1964.32 364.576 1966.38 368.362C2002 433.949 2062.63 454.006 2132.16 455.456C2150.33 455.835 2168.55 455.435 2186.77 455.035C2241.07 453.845 2295.34 452.654 2348.02 472.087C2423.24 499.837 2486.65 540.654 2504.1 624.999C2517.1 687.845 2502.68 746.698 2466.08 802.332Z" stroke="black"/>
<ellipse cx="1393.81" cy="521.589" rx="187" ry="174.204" fill="#47BDFF"/>
<path d="M1342.26 567.527C1340.33 555.542 1338.98 542.138 1338.73 526.854H1389.45V567.527H1342.26ZM1394.31 397.133C1323.38 397.133 1265.81 452.824 1265.81 521.588C1265.81 590.352 1323.38 646.044 1394.31 646.044C1465.25 646.044 1522.81 590.352 1522.81 521.588C1522.81 452.824 1465.25 397.133 1394.31 397.133ZM1333.17 465.118H1291.91C1305.04 442.963 1325.6 425.45 1350.36 415.814C1344.41 426.776 1337.72 442.962 1333.17 465.118ZM1286.39 475.65H1331.32C1329.4 487.65 1328.11 501.13 1327.86 516.323H1276.61C1277.3 501.893 1280.67 488.169 1286.39 475.65ZM1276.54 526.854H1327.91C1328.15 542.118 1329.5 555.511 1331.43 567.527H1286.73C1280.96 554.953 1277.24 541.319 1276.54 526.854ZM1333.24 578.058C1337.82 600.413 1344.6 616.586 1350.59 627.454C1325.74 617.844 1305.18 600.27 1292.03 578.058H1333.24ZM1364.32 631.82C1357.88 621.511 1349.57 603.994 1344.19 578.058H1389.46V635.571C1380.8 635.227 1372.42 633.887 1364.32 631.82ZM1389.46 516.323H1338.68C1338.94 501.091 1340.25 487.635 1342.18 475.65H1389.46V516.323ZM1389.46 465.118H1344.01C1349.35 439.375 1357.6 421.93 1364.04 411.43C1372.21 409.323 1380.7 407.958 1389.46 407.599V465.118ZM1502.06 475.65C1507.8 488.197 1511.29 501.892 1512 516.323H1461.86C1461.61 501.131 1460.31 487.65 1458.39 475.65H1502.06ZM1456.55 465.118C1452.05 443.224 1445.46 427.156 1439.56 416.204C1463.71 425.953 1483.63 443.335 1496.53 465.118H1456.55ZM1425.81 411.613C1432.22 422.143 1440.42 439.515 1445.72 465.118H1400.26V407.601C1409.06 408.05 1417.61 409.421 1425.81 411.613ZM1400.26 475.65H1447.54C1449.47 487.635 1450.78 501.091 1451.04 516.323H1400.26V475.65ZM1400.26 526.854H1450.99C1450.75 542.137 1449.39 555.541 1447.45 567.527H1400.26V526.854ZM1400.26 635.405V578.05H1445.54C1440.18 603.83 1431.94 621.281 1425.52 631.63C1417.44 633.773 1408.97 634.968 1400.26 635.405ZM1456.5 578.05H1496.46C1483.6 599.917 1463.61 617.324 1439.35 627.047C1445.29 616.19 1451.97 600.141 1456.5 578.05ZM1511.91 526.854C1511.21 541.312 1507.51 554.946 1501.78 567.527H1458.3C1460.22 555.51 1461.57 542.118 1461.83 526.854H1511.91Z" fill="white" stroke="white" stroke-width="2"/>
<path d="M421.812 238.829C325.812 229.85 271.479 292.343 256.312 324.711C268.812 333.657 309.213 342.18 370.812 304.704C432.413 267.229 530.146 276.728 571.312 286.162C561.479 274.125 517.812 247.808 421.812 238.829Z" fill="#EDCB41"/>
<path d="M414.356 568.419C414.336 568.571 414.322 568.719 414.312 568.863C414.312 568.688 414.326 568.54 414.356 568.419C415.057 563.079 422.532 553.032 447.812 552.272C480.312 551.297 598.812 561.544 611.812 552.272C589.312 577.159 580.312 595.213 503.812 589.846C429.818 584.654 415.232 564.854 414.356 568.419Z" fill="#EDCB41"/>
<path d="M203.489 733.225C151.489 639.145 55.4886 635.794 13.9886 645.879C0.988572 649.945 -14.3114 657.883 28.4886 657.102C81.9886 656.126 62.4886 722.489 203.489 733.225Z" fill="#EDCB41"/>
<defs>
<linearGradient id="paint0_linear_0_1" x1="610.813" y1="112.672" x2="2381.3" y2="131.116" gradientUnits="userSpaceOnUse">
<stop stop-color="#EDCB41"/>
<stop offset="0.526514" stop-color="#C32907"/>
</linearGradient>
</defs>
</svg>
